# xmcd
#
# Track frame offsets: 
#        150
#        11914
#        35587
#        59380
#        94088
#        117474
#        146370
#
# Disc length: 2519 seconds
#
# Revision: 9
# Processed by: cddbd v1.5.2PL0 Copyright (c) Steve Scherf et al.
# Submitted via: ExactAudioCopyFreeDBPlugin 1.0
#
DISCID=5e09d507
DTITLE=Thelonious Monk - Vol.08 - There Are Such Things
DYEAR=1900
DGENRE=Jazz
TTITLE0=Wee See
TTITLE1=Nutty
TTITLE2=Work
TTITLE3=I Want To Be Happy
TTITLE4=The Way You Look Tonight
TTITLE5=More Than You Know
TTITLE6=There Are Such Things
EXTD=
EXTT0=
EXTT1=
EXTT2=
EXTT3=
EXTT4=
EXTT5=
EXTT6=
PLAYORDER=
